# Blender v2.77 (sub 0) OBJ File: 'cube.blend'
# www.blender.org
mtllib cube.mtl
o Cube
v 1.000000 -1.000000 -1.000000
v 1.000000 -1.000000 1.000000
v -1.000000 -1.000000 1.000000
v -1.000000 -1.000000 -1.000000
v 1.000000 1.000000 -0.999999
v 0.999999 1.000000 1.000001
v -1.000000 1.000000 1.000000
v -1.000000 1.000000 -1.000000
vt 0.1269 0.7494
vt 0.3756 0.9981
vt 0.1269 0.9981
vt 0.3756 0.7494
vt 0.3756 0.2519
vt 0.6244 0.5006
vt 0.3756 0.5006
vt 0.6244 0.2519
vt 0.6244 0.7494
vt 0.6244 0.9981
vt 0.3756 0.0031
vt 0.6244 0.0031
vt 0.8731 0.9981
vt 0.8731 0.7494
vn 0.0000 0.0000 -1.0000
vn 1.0000 -0.0000 0.0000
vn -1.0000 -0.0000 -0.0000
vn 0.0000 1.0000 0.0000
vn 0.0000 -0.0000 1.0000
vn 0.0000 -1.0000 0.0000
usemtl MaterialDiffuseR
s off
f 1/1/1 8/2/1 5/3/1
f 1/1/1 4/4/1 8/2/1
usemtl MaterialDiffuseM
f 5/5/2 2/6/2 1/7/2
f 5/5/2 6/8/2 2/6/2
usemtl MaterialSpecularG
f 3/9/3 8/2/3 4/4/3
f 3/9/3 7/10/3 8/2/3
usemtl MaterialSpecularY
f 8/11/4 6/8/4 5/5/4
f 8/11/4 7/12/4 6/8/4
usemtl MaterialPhongB
f 6/13/5 3/9/5 2/14/5
f 6/13/5 7/10/5 3/9/5
usemtl MaterialPhongC
f 2/6/6 4/4/6 1/7/6
f 2/6/6 3/9/6 4/4/6
